<?xml version="1.0" standalone="no"?>
<!DOCTYPE svg PUBLIC "-//W3C//DTD SVG 20010904//EN"
 "http://www.w3.org/TR/2001/REC-SVG-20010904/DTD/svg10.dtd">
<svg version="1.0" xmlns="http://www.w3.org/2000/svg"
 width="341.000000pt" height="341.000000pt" viewBox="0 0 341.000000 341.000000"
 preserveAspectRatio="xMidYMid meet">
<metadata>
Created by potrace 1.14, written by Peter Selinger 2001-2017
</metadata>
<g transform="translate(0.000000,341.000000) scale(0.100000,-0.100000)"
fill="#000000" stroke="none">
<path d="M1637 3123 c-1 -1 -27 -3 -57 -5 -30 -2 -61 -7 -67 -11 -7 -5 -17 -5
-23 -2 -5 3 -16 3 -22 -2 -7 -4 -22 -8 -33 -9 -11 -1 -31 -6 -45 -11 -14 -6
-28 -9 -32 -6 -5 2 -8 0 -8 -5 0 -5 -14 -12 -31 -16 -40 -8 -209 -90 -239
-116 -12 -11 -27 -17 -31 -14 -5 3 -9 1 -9 -4 0 -5 -20 -23 -45 -41 -60 -43
-195 -175 -195 -190 0 -7 -4 -10 -9 -6 -5 3 -12 -4 -16 -15 -3 -11 -11 -20
-16 -20 -6 0 -7 -4 -4 -10 3 -5 2 -10 -4 -10 -9 0 -72 -94 -70 -106 0 -4 -3
-10 -8 -13 -21 -14 -109 -228 -118 -286 -2 -11 -4 -20 -5 -20 -3 0 -11 -39
-15 -65 -1 -14 -3 -25 -5 -25 -4 0 -12 -107 -12 -190 -1 -81 6 -163 18 -219 3
-12 7 -32 9 -46 8 -46 13 -65 40 -139 15 -41 36 -89 46 -108 10 -18 19 -40 19
-47 0 -8 4 -16 9 -18 5 -1 11 -10 13 -18 2 -8 11 -23 20 -34 10 -11 18 -26 18
-33 0 -7 5 -13 10 -13 6 0 10 -5 10 -10 0 -6 5 -16 10 -23 115 -137 160 -181
173 -168 12 12 17 51 7 51 -3 0 -8 19 -9 43 -2 23 -4 53 -5 67 -2 14 3 48 9
77 7 29 10 55 7 58 -3 3 1 5 8 5 7 0 10 3 7 6 -4 4 6 30 21 58 40 72 43 91 20
115 -10 12 -17 21 -14 21 3 0 -6 25 -19 55 -14 30 -22 55 -19 55 4 0 1 7 -6
15 -6 8 -13 24 -15 37 -1 13 -6 46 -11 73 -4 28 -8 67 -8 87 -1 21 -5 38 -9
38 -5 0 -5 6 0 13 11 18 12 37 2 37 -6 0 -7 6 -2 13 7 11 9 26 16 97 1 14 5
30 10 37 4 6 8 23 9 37 1 14 5 26 8 26 3 0 7 12 8 27 1 15 6 29 10 32 9 7 34
60 38 80 1 8 8 17 14 21 7 4 11 10 11 14 -3 18 80 119 153 185 16 14 40 36 52
49 13 12 25 21 26 20 2 -1 24 12 51 30 26 18 47 29 47 25 0 -4 4 -3 8 2 9 13
119 66 147 71 11 2 34 7 50 10 17 3 73 8 125 10 52 2 116 5 143 7 26 1 47 0
47 -3 0 -3 14 -7 32 -8 53 -4 215 -65 230 -86 4 -6 8 -7 8 -3 0 7 97 -54 138
-88 35 -27 126 -124 150 -160 15 -22 30 -42 33 -45 11 -9 69 -139 69 -155 0
-9 4 -14 9 -11 4 3 8 -5 7 -17 -1 -12 2 -24 6 -27 4 -3 10 -21 12 -40 8 -52
11 -64 19 -77 5 -8 3 -13 -3 -13 -8 0 -8 -6 0 -20 8 -15 8 -20 -2 -20 -8 0 -9
-3 -3 -8 12 -8 13 -82 2 -99 -4 -6 -3 -15 3 -18 7 -4 7 -12 2 -18 -14 -20 1
-97 20 -97 5 0 7 -4 3 -9 -3 -6 1 -13 8 -18 7 -4 26 -30 41 -58 16 -27 35 -58
43 -67 18 -21 9 -38 -20 -37 -38 1 -156 -9 -177 -16 -21 -7 -39 -53 -24 -64
11 -7 32 -40 40 -61 3 -8 11 -26 16 -40 6 -14 12 -29 13 -35 1 -5 3 -12 4 -15
3 -5 7 -37 14 -95 2 -16 0 -42 -4 -57 -5 -18 -4 -28 3 -28 6 0 6 -6 -2 -15 -7
-8 -9 -15 -4 -15 5 0 4 -4 -2 -8 -7 -4 -13 -20 -15 -37 -2 -16 -7 -35 -12 -42
-4 -6 -3 -14 4 -19 8 -4 9 -3 5 4 -4 7 0 12 10 12 10 0 15 3 11 6 -8 8 18 34
34 34 7 0 10 3 6 6 -3 3 13 24 36 45 23 21 38 39 34 39 -4 0 3 10 16 23 34 32
90 114 103 150 3 9 10 17 14 17 7 0 19 34 19 53 0 5 8 15 18 24 11 9 12 12 3
8 -9 -4 -8 -1 3 8 10 8 20 28 23 43 3 16 11 32 17 36 7 4 9 8 5 8 -4 0 -1 18
7 40 8 22 12 40 8 40 -3 0 0 6 6 14 6 7 9 21 5 30 -4 9 -1 16 6 16 7 0 10 7 6
16 -3 9 -3 21 1 27 16 26 22 305 8 392 -5 28 -9 61 -9 75 -1 14 -4 27 -8 30
-4 3 -9 19 -12 35 -2 17 -5 31 -6 33 -2 1 -3 5 -4 10 -12 53 -74 194 -90 204
-6 4 -7 8 -3 8 4 0 -8 25 -28 55 -19 30 -33 55 -30 55 2 0 -8 13 -23 29 -15
16 -38 43 -52 61 -32 43 -126 136 -170 169 -19 14 -37 28 -40 32 -26 30 -225
140 -265 146 -11 2 -21 8 -23 13 -2 6 -14 10 -26 10 -12 0 -27 5 -34 12 -7 7
-12 9 -12 5 0 -4 -16 -1 -35 8 -25 10 -34 11 -28 2 5 -9 3 -9 -8 0 -8 6 -27
13 -44 16 -16 3 -46 8 -66 12 -32 6 -257 13 -262 8z"/>
<path d="M1224 2058 c-3 -5 -10 -6 -15 -2 -5 3 -16 0 -24 -6 -8 -7 -15 -9 -15
-4 0 4 -14 -8 -30 -26 -37 -42 -49 -84 -37 -131 9 -38 50 -93 61 -82 3 3 6 1
6 -6 0 -7 5 -9 10 -6 6 3 10 2 10 -3 0 -16 101 -11 107 5 3 7 9 10 14 7 5 -3
9 0 9 7 0 7 3 9 7 6 7 -8 39 34 35 46 -1 4 2 7 7 7 9 0 9 79 0 110 -5 17 -24
40 -36 42 -4 1 -16 10 -26 19 -21 19 -75 30 -83 17z"/>
<path d="M1670 2051 c-8 -6 -18 -7 -22 -5 -4 3 -8 -3 -8 -12 0 -10 -3 -15 -6
-11 -8 8 -33 -16 -27 -25 2 -5 0 -8 -5 -8 -5 0 -10 -6 -11 -12 -9 -60 -7 -89
10 -124 10 -21 18 -35 19 -30 0 6 6 1 14 -9 7 -10 22 -20 32 -23 34 -8 114 -9
114 -1 0 4 9 10 20 14 28 9 61 68 63 115 2 22 -1 40 -5 40 -4 0 -8 9 -8 20 0
11 -4 20 -10 20 -5 0 -10 7 -10 16 0 8 -4 12 -10 9 -5 -3 -10 -2 -10 3 0 25
-107 43 -140 23z"/>
<path d="M2094 2028 c-21 -15 -34 -28 -31 -28 4 0 1 -12 -6 -27 -29 -59 4
-151 62 -176 72 -30 149 -9 185 52 34 58 23 144 -22 171 -9 5 -12 10 -7 10 6
0 -6 8 -24 16 -52 22 -112 15 -157 -18z"/>
<path d="M1289 1615 c-4 -3 -16 -8 -28 -10 -11 -3 -31 -7 -43 -10 -11 -2 -31
-14 -43 -25 -12 -11 -26 -20 -33 -20 -30 0 -154 -157 -157 -200 0 -3 -4 -10
-8 -17 -4 -6 -8 -23 -9 -37 -1 -14 -5 -26 -8 -26 -8 0 -4 -118 5 -155 4 -16 8
-36 8 -42 0 -7 4 -13 8 -13 4 0 10 -13 14 -29 3 -16 13 -35 21 -42 8 -6 14
-17 14 -23 0 -12 206 -216 394 -391 60 -55 123 -113 140 -130 108 -100 148
-135 154 -135 12 0 52 30 89 67 19 18 39 33 44 33 6 0 7 5 4 10 -3 6 -2 10 2
10 5 0 32 22 62 50 30 27 58 50 63 50 5 0 7 4 4 8 -2 4 11 18 30 31 18 13 31
27 28 32 -3 5 -1 9 5 9 6 0 35 25 65 55 30 30 60 55 67 55 7 0 10 3 6 6 -9 9
106 113 118 107 5 -4 7 -3 4 1 -3 3 19 33 50 65 47 49 101 131 107 164 1 4 3
10 4 15 1 4 2 10 1 15 0 4 2 7 7 7 4 0 8 41 8 90 1 50 -2 90 -5 90 -4 0 -8 14
-9 32 -2 18 -7 35 -12 38 -6 3 -11 18 -12 32 -1 15 -6 24 -10 22 -4 -3 -8 0
-8 5 0 19 -4 25 -25 47 -11 12 -27 30 -36 40 -9 11 -26 26 -39 34 -12 8 -32
22 -44 32 -12 9 -31 18 -41 20 -11 1 -23 7 -26 11 -11 15 -64 22 -154 21 -106
-1 -135 -5 -135 -17 0 -5 -9 -7 -19 -4 -12 3 -22 -1 -25 -10 -3 -8 -10 -11
-16 -8 -5 3 -10 1 -10 -4 0 -6 -5 -11 -11 -11 -7 0 -22 -11 -35 -26 -13 -14
-24 -22 -24 -18 0 3 -16 -8 -36 -25 l-36 -32 -22 23 c-28 29 -87 74 -93 70 -3
-2 -13 6 -23 18 -10 12 -21 21 -24 21 -17 -1 -66 12 -66 18 0 9 -193 15 -201
6z"/>
</g>
</svg>
